{
    "asset" : {
        "generator" : "Khronos glTF Blender I/O v1.8.19",
        "version" : "2.0"
    },
    "scene" : 0,
    "scenes" : [
        {
            "name" : "Scene",
            "nodes" : [
                0
            ]
        }
    ],
    "nodes" : [
        {
            "mesh" : 0,
            "name" : "\u96d5\u5851_\u718a"
        }
    ],
    "materials" : [
        {
            "doubleSided" : true,
            "name" : "Mat3d66-1443520-2-9269",
            "pbrMetallicRoughness" : {
                "baseColorFactor" : [
                    0.2705880105495453,
                    0.2705880105495453,
                    0.2705880105495453,
                    1
                ],
                "metallicFactor" : 0.5118110179901123,
                "roughnessFactor" : 0.5
            }
        }
    ],
    "meshes" : [
        {
            "name" : "Obj3d66-1443520-42-72",
            "primitives" : [
                {
                    "attributes" : {
                        "POSITION" : 0,
                        "NORMAL" : 1,
                        "TEXCOORD_0" : 2
                    },
                    "indices" : 3,
                    "material" : 0
                }
            ]
        }
    ],
    "accessors" : [
        {
            "bufferView" : 0,
            "componentType" : 5126,
            "count" : 17382,
            "max" : [
                0.15594786405563354,
                0.4764188230037689,
                0.1899685263633728
            ],
            "min" : [
                -0.15594786405563354,
                3.259629011154175e-09,
                -0.1899685263633728
            ],
            "type" : "VEC3"
        },
        {
            "bufferView" : 1,
            "componentType" : 5126,
            "count" : 17382,
            "type" : "VEC3"
        },
        {
            "bufferView" : 2,
            "componentType" : 5126,
            "count" : 17382,
            "type" : "VEC2"
        },
        {
            "bufferView" : 3,
            "componentType" : 5123,
            "count" : 85968,
            "type" : "SCALAR"
        }
    ],
    "bufferViews" : [
        {
            "buffer" : 0,
            "byteLength" : 208584,
            "byteOffset" : 0
        },
        {
            "buffer" : 0,
            "byteLength" : 208584,
            "byteOffset" : 208584
        },
        {
            "buffer" : 0,
            "byteLength" : 139056,
            "byteOffset" : 417168
        },
        {
            "buffer" : 0,
            "byteLength" : 171936,
            "byteOffset" : 556224
        }
    ],
    "buffers" : [
        {
            "byteLength" : 728160,
            "uri" : "data:application/octet-stream;base64,"
        }
    ]
}
