{
    "asset" : {
        "generator" : "Khronos glTF Blender I/O v1.8.19",
        "version" : "2.0"
    },
    "scene" : 0,
    "scenes" : [
        {
            "name" : "Scene",
            "nodes" : [
                0
            ]
        }
    ],
    "nodes" : [
        {
            "mesh" : 0,
            "name" : "\u77f3\u72ee\u5b50"
        }
    ],
    "materials" : [
        {
            "doubleSided" : true,
            "name" : "Mat3d66-1706044-16-8562",
            "pbrMetallicRoughness" : {
                "baseColorFactor" : [
                    0.1490200012922287,
                    0.10588199645280838,
                    0.08235300332307816,
                    1
                ],
                "metallicFactor" : 0,
                "roughnessFactor" : 0.9173228740692139
            }
        }
    ],
    "meshes" : [
        {
            "name" : "Obj3d66-1706044-1-241",
            "primitives" : [
                {
                    "attributes" : {
                        "POSITION" : 0,
                        "NORMAL" : 1,
                        "TEXCOORD_0" : 2
                    },
                    "indices" : 3,
                    "material" : 0
                }
            ]
        }
    ],
    "accessors" : [
        {
            "bufferView" : 0,
            "componentType" : 5126,
            "count" : 21196,
            "max" : [
                0.226582333445549,
                0.7959713935852051,
                0.340057909488678
            ],
            "min" : [
                -0.226582333445549,
                -2.9802322387695312e-08,
                -0.340057909488678
            ],
            "type" : "VEC3"
        },
        {
            "bufferView" : 1,
            "componentType" : 5126,
            "count" : 21196,
            "type" : "VEC3"
        },
        {
            "bufferView" : 2,
            "componentType" : 5126,
            "count" : 21196,
            "type" : "VEC2"
        },
        {
            "bufferView" : 3,
            "componentType" : 5123,
            "count" : 81492,
            "type" : "SCALAR"
        }
    ],
    "bufferViews" : [
        {
            "buffer" : 0,
            "byteLength" : 254352,
            "byteOffset" : 0
        },
        {
            "buffer" : 0,
            "byteLength" : 254352,
            "byteOffset" : 254352
        },
        {
            "buffer" : 0,
            "byteLength" : 169568,
            "byteOffset" : 508704
        },
        {
            "buffer" : 0,
            "byteLength" : 162984,
            "byteOffset" : 678272
        }
    ],
    "buffers" : [
        {
            "byteLength" : 841256,
            "uri" : "data:application/octet-stream;base64,"
        }
    ]
}
